<svg xmlns="http://www.w3.org/2000/svg" xmlns:xlink="http://www.w3.org/1999/xlink" width="300" height="300" viewBox="437685.3660534582 4471976.116504076 4722.203572207596 4804.058585083112" preserveAspectRatio="xMinYMin meet"><g transform="matrix(1,0,0,-1,0,8948756.291593235)"><path fill-rule="evenodd" fill="#66cc99" stroke="#555555" stroke-width="32.02705723388741" opacity="0.6" d="M 440357.04736053484,4472154.04459982 L 440274.48745084065,4472157.618367338 L 440192.73667046713,4472169.689838304 L 440115.33717046684,4472185.240438304 L 440080.1503634839,4472193.138995214 L 439858.13186348364,4472248.260895214 L 439856.4581321078,4472248.678359054 L 439452.0007321081,4472350.0218590535 L 439402.29520772584,4472364.197767094 L 439337.5457077259,4472384.948267095 L 439264.912634581,4472412.17414003 L 439195.2577032251,4472446.306265796 L 438796.3207032252,4472666.390065795 L 438737.28817788855,4472702.368312571 L 438681.5822382594,4472743.308776403 L 438629.618874821,4472788.905729688 L 438581.7861299406,4472838.818671957 L 438061.9312299409,4473430.464571957 L 438012.910913501,4473492.130566961 L 437970.1931569672,4473558.31878072 L 437934.1921681507,4473628.387426833 L 437905.2570264973,4473701.657092734 L 437883.66829827894,4473777.41732754 L 437869.6353161149,4473854.9335308485 L 437863.294149202,4473933.454075715 L 437864.7062839358,4474012.217596708 L 437874.72678393545,4474161.147896709 L 437888.94693602074,4474266.763050639 L 437959.3976360207,4474613.4333506385 L 437974.39810131403,4474674.74381586 L 437994.18541861273,4474734.68085932 L 438499.3165186126,4476083.50955932 L 438529.82539502485,4476154.369184373 L 438567.0178445381,4476221.96060174 L 438610.54798446153,4476285.655224124 L 438660.0109927916,4476344.86070368 L 438714.9468729796,4476399.026440733 L 438774.84473181155,4476447.648704253 L 438839.14753061824,4476490.275316458 L 438907.2572656282,4476526.509857981 L 438978.540529289,4476556.015354492 L 439052.3344008367,4476578.517410497 L 439127.9526113326,4476593.806761166 L 439204.6919258334,4476601.741218452 L 439281.83868334256,4476602.246993415 L 439358.6754337209,4476595.319382443 L 440241.7991337213,4476472.530582444 L 440302.60433073534,4476461.668807613 L 440590.49223073485,4476398.685907612 L 440611.86427834304,4476393.702100287 L 440650.7839783435,4476384.061600287 L 440680.0968486042,4476376.2077599205 L 441087.7134486036,4476258.664459921 L 441094.6550388411,4476256.628693292 L 441210.4945388418,4476222.08679329 L 441273.1894053547,4476200.525210259 L 441333.88362366735,4476173.8463794505 L 441392.1603432189,4476142.233532249 L 441840.2466432185,4475874.559032249 L 441906.97502943256,4475830.010861255 L 441968.9057031575,4475779.0029332675 L 442025.4157562842,4475722.048293762 L 442075.9368021279,4475659.71980114 L 442119.96069234714,4475592.644364834 L 442157.04462797724,4475521.496639756 L 442186.8156131693,4475446.992240515 L 442208.97420683893,4475369.880543657 L 442223.29753449047,4475290.937150326 L 442229.64152992197,4475210.956085144 L 442227.9423842652,4475130.741809796 L 442094.528584265,4473263.951009796 L 442085.6836620958,4473189.488251477 L 442069.9056622527,4473116.180750185 L 442047.3332076544,4473044.672573603 L 442018.16461618466,4472975.591980841 L 441982.6561583036,4472909.545902655 L 441941.1198054981,4472847.114609058 L 441823.4401054988,4472687.045309058 L 441774.29060601676,4472626.596135012 L 441719.49425640015,4472571.214405074 L 441659.5707465938,4472521.425360951 L 441595.0883926574,4472477.701203177 L 441526.6587468419,4472440.456612754 L 441454.9307976128,4472410.0448183045 L 441380.58481462725,4472386.754246046 L 440587.6489146273,4472180.160446045 L 440523.4393341511,4472166.219439907 L 440458.3022853432,4472157.594664566 L 440392.67716053507,4472154.344299819 L 440357.04736053484,4472154.04459982 z" /></g></svg>