<svg xmlns="http://www.w3.org/2000/svg" xmlns:xlink="http://www.w3.org/1999/xlink" width="300" height="300" viewBox="423173.6020583438 4460986.032599354 34439.695707629784 39959.329481299035" preserveAspectRatio="xMinYMin meet"><g transform="matrix(1,0,0,-1,0,8961931.394680008)"><path fill-rule="evenodd" fill="#66cc99" stroke="#555555" stroke-width="266.39552987532693" opacity="0.6" d="M 449173.95771988103,4462466.315924603 L 449164.04522605985,4462466.0077653285 L 449154.15095473273,4462466.6829621885 L 441109.26235473255,4463418.30836219 L 441098.1424421391,4463420.265590457 L 439442.42634213925,4463809.182190457 L 439433.75811380584,4463811.635118308 L 439425.34580939414,4463814.858187025 L 439417.2576989922,4463818.825239786 L 431134.72429899214,4468355.006339786 L 431126.7621850811,4468359.86289479 L 431119.287147047,4468365.4400975695 L 431112.36420380557,4468371.689436841 L 431106.0535720756,4468378.556554986 L 431100.41014260554,4468385.981720861 L 431095.48300272605,4468393.900349344 L 429454.0707027261,4471328.699349345 L 429453.6995734891,4471329.368921081 L 429314.319673489,4471583.116621079 L 429307.086428679,4471596.301573598 L 429306.37280732946,4471597.625911057 L 429299.34290732996,4471610.910311056 L 429299.00317460694,4471611.558022434 L 429292.0907746062,4471624.854722435 L 429290.9242208159,4471627.171649002 L 429282.1528208159,4471645.170249002 L 429281.8000744933,4471645.901596674 L 429273.2581744937,4471663.796796673 L 429272.3630287629,4471665.724553987 L 429266.109128763,4471679.576253988 L 429266.02090804966,4471679.772214323 L 429117.63280804956,4472010.327814322 L 429114.0516697226,4472019.485848352 L 429111.3872946221,4472028.951324797 L 424656.0669946223,4491477.442024798 L 424654.3331194734,4491487.218094816 L 424653.5772243178,4491497.117917569 L 424653.80676060874,4491507.043902716 L 424655.01946562633,4491516.8982020095 L 424657.2033847831,4491526.583673869 L 424664.2385847829,4491551.862173869 L 424664.3799824388,4491552.365145715 L 424684.66858243843,4491623.817645716 L 424684.83261538495,4491624.38887233 L 425120.2058153852,4493123.71887233 L 425123.5201340889,4493133.292370154 L 425127.7860874207,4493142.481396828 L 425132.9598910994,4493151.191639336 L 425138.9884429793,4493159.333698736 L 425145.8098680721,4493166.824007724 L 425153.35415361123,4493173.5856883405 L 425817.49985361146,4493710.73298834 L 425827.3896362503,4493717.783049116 L 425997.98773625033,4493824.393349117 L 426006.86436995014,4493829.332152147 L 426016.1962458523,4493833.344943365 L 431475.71544585226,4495859.039443364 L 431483.90041604143,4495861.681865773 L 444516.3064160409,4499458.0917657735 L 444520.05329675315,4499459.048187256 L 444535.9592967536,4499462.782287255 L 444545.87050912617,4499464.587792066 L 444555.9130875483,4499465.386914679 L 444565.9851079048,4499465.17154464 L 444575.98434726865,4499463.943867785 L 444577.45314726856,4499463.687867786 L 444583.84192101815,4499462.358224273 L 444876.0231210177,4499391.529224273 L 444888.46543752606,4499387.638675604 L 444912.4334375264,4499378.389675604 L 444915.6766334026,4499377.072490449 L 446020.4506334028,4498905.691390448 L 446028.11020303884,4498902.03148453 L 446035.43176260934,4498897.735127493 L 446042.3625500869,4498892.833280568 L 446065.4515500866,4498874.986280569 L 446066.14587395,4498874.444691976 L 446138.38687395037,4498817.581691976 L 446144.7209736074,4498812.595349954 L 446151.1370659149,4498807.08960855 L 446157.0651576833,4498801.06157762 L 446162.4628752507,4498794.554345185 L 446239.78457525093,4498692.8813451845 L 446246.36570876406,4498683.0756256925 L 449158.956208764,4493735.024025693 L 449163.347190808,4493726.689724089 L 455584.4800908076,4480008.50462409 L 455587.4397440804,4480001.499504123 L 455590.2396440804,4479994.0995041225 L 455593.48679761885,4479983.898054689 L 455595.3866976194,4479976.597954689 L 455597.1926465082,4479968.191061319 L 455598.79264650785,4479958.790961319 L 455599.5413859402,4479953.56001372 L 455600.5412859404,4479944.95991372 L 455600.9505156882,4479940.615912457 L 456130.87611568795,4472604.569212456 L 456131.0416113375,4472601.708225878 L 456132.13491133734,4472576.562925879 L 456132.20175703167,4472574.565977713 L 456133.1128570318,4472535.754877713 L 456133.12926498166,4472534.900273322 L 456133.31146498135,4472522.692073322 L 456133.3225999996,4472521.1998 L 456133.3225999996,4472510.995999999 L 456133.16865405353,4472505.449335248 L 456132.6220540535,4472495.609935249 L 456132.2641884298,4472491.052127581 L 456129.89538843045,4472467.7290275805 L 456129.503226253,4472464.41792767 L 456125.4413262529,4472434.414127671 L 456125.10947416356,4472432.156860379 L 456122.4812741634,4472415.594960378 L 456122.02806429856,4472412.966043289 L 455931.5686642985,4471389.881343289 L 455928.9984877645,4471379.309209403 L 455925.29497178225,4471369.078872571 L 455920.50195702695,4471359.311435246 L 451135.7825570271,4462817.771235245 L 451131.009098625,4462810.087021665 L 451125.5607565781,4462802.865622049 L 451119.4821163276,4462796.16613131 L 451112.82292123657,4462790.043373418 L 451105.6376655253,4462784.547452765 L 450948.4074655252,4462675.1900527645 L 450940.561912677,4462670.256413271 L 450932.29330160224,4462666.070297047 L 450923.67265429365,4462662.66766011 L 450914.7740165067,4462660.077728898 L 450905.6738217541,4462658.322749237 L 450100.45372175454,4462541.4346492365 L 450094.14771988144,4462540.722724603 L 449173.95771988103,4462466.315924603 z" /></g></svg>