<svg xmlns="http://www.w3.org/2000/svg" xmlns:xlink="http://www.w3.org/1999/xlink" width="300" height="300" viewBox="423281.56446400034 4461094.013063999 34223.73567199928 39743.39347200096" preserveAspectRatio="xMinYMin meet"><g transform="matrix(1,0,0,-1,0,8961931.419599999)"><path fill-rule="evenodd" fill="#66cc99" stroke="#555555" stroke-width="264.95595648000636" opacity="0.6" d="M 449165.89800000004,4462565.990599999 L 441121.00939999986,4463517.616 L 439465.2933,4463906.5326000005 L 431182.75989999995,4468442.7137 L 429541.3476,4471377.512700001 L 429401.9676999999,4471631.260399999 L 429394.75989999995,4471644.399 L 429387.73000000045,4471657.6833999995 L 429380.8175999997,4471670.9801 L 429372.04619999975,4471688.978700001 L 429363.50430000015,4471706.8739 L 429357.25040000025,4471720.7256000005 L 429208.86230000015,4472051.281199999 L 424753.54200000037,4491499.7719 L 424760.5772000002,4491525.0504 L 424780.8657999998,4491596.502900001 L 425216.23900000006,4493095.832900001 L 425880.3847000003,4493632.9802 L 426050.98280000035,4493739.590500001 L 431510.5020000003,4495765.285 L 444542.9079999998,4499361.6949000005 L 444558.81400000025,4499365.429 L 444560.28280000016,4499365.173 L 444852.4639999997,4499294.3440000005 L 444876.43200000003,4499285.095000001 L 445981.20600000024,4498813.7139 L 446004.2949999999,4498795.866900001 L 446076.5360000003,4498739.003900001 L 446082.86560000014,4498734.0211 L 446160.18730000034,4498632.348099999 L 449072.7778000003,4493684.296499999 L 455493.9106999999,4479966.111400001 L 455496.7105999999,4479958.7114 L 455498.6105000004,4479951.4113 L 455500.21050000004,4479942.0112 L 455501.2104000002,4479933.4111 L 456031.13599999994,4472597.364399999 L 456032.2292999998,4472572.2191 L 456033.1403999999,4472533.408 L 456033.3225999996,4472521.1998 L 456033.3225999996,4472510.995999999 L 456032.7759999996,4472501.1566 L 456030.40720000025,4472477.8335 L 456026.34530000016,4472447.829700001 L 456023.7171,4472431.2678 L 455833.25769999996,4471408.1831 L 451048.53830000013,4462866.642899999 L 450891.3081,4462757.285499999 L 450086.08800000045,4462640.397399999 L 449165.89800000004,4462565.990599999 z" /></g></svg>