<svg xmlns="http://www.w3.org/2000/svg" xmlns:xlink="http://www.w3.org/1999/xlink" width="300" height="300" viewBox="438548.9445800005 4472840.059280001 2994.990039999364 3076.8395399991423" preserveAspectRatio="xMinYMin meet"><g transform="matrix(1,0,0,-1,0,8948756.9581)"><path fill-rule="evenodd" fill="#66cc99" stroke="#555555" stroke-width="20.51226359999428" opacity="0.6" d="M 441296.56379999965,4473320.9791 L 441236.32409999985,4473273.3695 L 441212.8641999997,4473248.299699999 L 441201.3842000002,4473231.0298 L 441201.34420000017,4473230.969799999 L 441197.80420000013,4473225.639799999 L 441184.78419999965,4473200.7798999995 L 441181.2441999996,4473184.229900001 L 441178.8841000004,4473160.9098000005 L 441140.8543999996,4473176.9202 L 441126.35450000037,4473191.3303 L 441121.81460000016,4473194.600400001 L 441116.50459999964,4473195.610400001 L 441104.6847000001,4473193.340500001 L 441003.9352000002,4473158.5813 L 440993.6052000001,4473163.6214000005 L 440783.9763000002,4473093.142899999 L 440778.21630000044,4473091.0030000005 L 440656.12689999957,4473047.614 L 440596.2271999996,4473026.5044 L 440519.37760000024,4473001.3049 L 440517.9288999997,4473000.7947 L 440385.94820000045,4472954.316 L 440350.3184000002,4472954.0163 L 440272.91889999993,4472969.5669 L 440050.9003999997,4473024.6888 L 440000.9519999996,4473038.5801 L 439890.40139999986,4473069.3301 L 439794.2921000002,4473093.231000001 L 439762.43230000045,4473099.351299999 L 439646.44299999997,4473126.032299999 L 439613.03330000024,4473137.672599999 L 439581.69350000005,4473146.7828 L 439442.74450000003,4473225.554099999 L 439312.77550000045,4473297.5153 L 439182.75650000013,4473366.866599999 L 439051.92819999997,4473636.018200001 L 439094.0683000004,4473742.7782000005 L 439173.11840000004,4473946.2281 L 438961.6596999997,4473950.0298 L 438944.19990000036,4473950.699999999 L 438871.4502999997,4473952.7206 L 438662.90160000045,4473958.512499999 L 438672.9221000001,4474107.4428 L 438714.5525000002,4474311.722999999 L 438733.8627000004,4474407.153100001 L 438743.3728,4474454.1131 L 438761.33270000014,4474467.353 L 438789.74260000046,4474488.2728 L 438827.6624999996,4474526.5626 L 438859.13239999954,4474565.2424 L 438884.9223999996,4474612.2623 L 438893.69240000006,4474631.452199999 L 438902.6124,4474650.952199999 L 438903.12239999976,4474652.0722 L 439083.75129999965,4474654.1757 L 439190.54059999995,4474659.4296 L 439260.3602,4474660.108999999 L 439300.6699000001,4474665.2586 L 439300.7298999997,4474665.2786 L 439438.08939999994,4474783.487600001 L 439482.0493000001,4474821.317299999 L 439486.35929999966,4474830.4673 L 439499.8191999998,4474847.4372000005 L 439511.1191999996,4474861.677200001 L 439623.86870000046,4474946.9363 L 439671.5985000003,4474983.026000001 L 439692.56850000005,4474997.265799999 L 439694.5083999997,4474998.5858 L 439626.27919999976,4475095.6766 L 439563.63999999966,4475213.4673999995 L 439503.7906999998,4475330.1482 L 439443.4014999997,4475447.869100001 L 439423.71169999987,4475483.609300001 L 439390.68209999986,4475543.5198 L 439301.37320000026,4475705.5309999995 L 439251.22389999963,4475797.921800001 L 439248.5038999999,4475802.9418 L 439383.9637000002,4475782.8628 L 439477.7122999998,4475769.239399999 L 439618.50129999965,4475749.618100001 L 439733.56039999984,4475733.256899999 L 439875.6897999998,4475713.206599999 L 439969.7890999997,4475701.1247000005 L 439995.41860000044,4475697.832800001 L 440131.62760000024,4475680.153000001 L 440314.61620000005,4475638.211100001 L 440419.51549999975,4475617.1701 L 440458.4352000002,4475607.5296 L 440673.0636,4475544.897500001 L 440866.05179999955,4475489.986300001 L 440981.89130000025,4475455.444399999 L 441035.9408,4475421.923900001 L 441143.33210000023,4475350.443 L 441350.62820000015,4475213.1907 L 441429.97759999987,4475187.7699 L 441406.7720999997,4475099.557399999 L 441355.3981999997,4474953.251499999 L 441201.3674999997,4474531.621300001 L 441210.8872999996,4474481.0611000005 L 441194.0673000002,4474436.451199999 L 441166.0769999996,4474266.1712 L 441155.08690000046,4474200.0013 L 441151.7067999998,4474148.7213 L 441167.82650000043,4474065.581 L 441187.21609999985,4473943.250700001 L 441211.81549999956,4473788.010299999 L 441231.81510000024,4473658.09 L 441254.74459999986,4473517.2097 L 441266.9243999999,4473462.319499999 L 441289.95409999974,4473392.7491999995 L 441282.3839999996,4473350.0692 L 441296.56379999965,4473320.9791 z" /></g></svg>