<svg xmlns="http://www.w3.org/2000/svg" xmlns:xlink="http://www.w3.org/1999/xlink" width="100.0" height="100.0" viewBox="-0.141732973973386 51.508644947783424 0.015544286431838916 0.010131876865457912" preserveAspectRatio="xMinYMin meet"><g transform="matrix(1,0,0,-1,0,103.0274217724323)"><path fill-rule="evenodd" fill="#66cc99" stroke="#555555" stroke-width="0.0003108857286367783" opacity="0.6" d="M -0.12676440185383742,51.51353470631299 L -0.12682676474258828,51.51309543953257 L -0.12695782921930798,51.51266210179211 L -0.12715633121525677,51.51223886611592 L -0.12742035738845497,51.51182980813442 L -0.12774736361395309,51.5114388668473 L -0.1281341995392377,51.51106980670629 L -0.1285771389662456,51.51072618138157 L -0.129071915765722,51.51041129956043 L -0.12961376497697882,51.510128193106226 L -0.13019746869664164,51.50987958788372 L -0.13081740631449612,51.50966787753087 L -0.13146760861322762,51.50949510042843 L -0.1321418152121667,51.50936292008871 L -0.1328335348035194,51.50927260915135 L -0.13353610760302942,51.509225037139785 L -0.13424276941614557,51.509220662095714 L -0.13494671670540864,51.50925952617183 L -0.1356411720353197,51.5093412552252 L -0.13631944926740996,51.50946506241506 L -0.13697501788047853,51.50962975577074 L -0.13760156579934824,51.5098337496572 L -0.13819306012945798,51.510075080028194 L -0.13874380521450963,51.51035142332085 L -0.1392484974596262,51.510660118810556 L -0.13970227639320598,51.51099819421173 L -0.1401007714762554,51.51136239427863 L -0.1404401442084075,51.5117492121319 L -0.14071712512452,51.512154923010115 L -0.14092904532443185,51.512575620121574 L -0.14107386223057003,51.5130072522527 L -0.14115017932323848,51.51344566277065 L -0.14115725966109566,51.5138866296455 L -0.14109503305383675,51.51432590610677 L -0.14096409681513808,51.51475926154277 L -0.1407657100856214,51.51518252224915 L -0.1405017817776431,51.51559161163362 L -0.1401748522552489,51.51598258948967 L -0.1397880689232925,51.516351689960274 L -0.13934515595870747,51.516695357825355 L -0.1388503784738092,51.51701028276288 L -0.13830850145562792,51.51729343125254 L -0.137724743876142,51.517542075814156 L -0.13710472841536903,51.51775382129797 L -0.13645442728208082,51.517926627973196 L -0.1357801046551055,51.518058831191084 L -0.1350882563011295,51.51814915743275 L -0.1343855469526862,51.518196736586646 L -0.13367874605182023,51.51820111033659 L -0.1329746624810632,51.51816223657962 L -0.13228007891312715,51.518080489830716 L -0.13160168641460238,51.51795665761066 L -0.1309460199363139,51.517791932852006 L -0.13031939531434347,51.5175879023966 L -0.12972784839090715,51.517346531696035 L -0.12917707684343738,51.517070145862995 L -0.12867238528374583,51.5167614072569 L -0.12821863415709367,51.5164232898203 L -0.1278201929338705,51.51605905041432 L -0.1274808980446401,51.51567219743004 L -0.12720401596308276,51.51526645697905 L -0.12699221179120596,51.514845736989415 L -0.1268475236476883,51.514414089553995 L -0.12677134310395072,51.51397567189372 L -0.12676440185383742,51.51353470631299 z" /></g></svg>