<svg xmlns="http://www.w3.org/2000/svg" xmlns:xlink="http://www.w3.org/1999/xlink" width="100.0" height="100.0" viewBox="-0.14173297397338355 51.508644947783424 0.015544286431837612 0.010131876865457912" preserveAspectRatio="xMinYMin meet"><g transform="matrix(1,0,0,-1,0,103.0274217724323)"><path fill-rule="evenodd" fill="#66cc99" stroke="#555555" stroke-width="0.00031088572863675223" opacity="0.6" d="M -0.12676440185383622,51.51353470631299 L -0.12682676474258628,51.51309543953258 L -0.12695782921930637,51.51266210179211 L -0.1271563312152548,51.51223886611593 L -0.12742035738845336,51.51182980813443 L -0.1277473636139515,51.5114388668473 L -0.1281341995392365,51.51106980670629 L -0.1285771389662432,51.51072618138158 L -0.1290719157657208,51.51041129956044 L -0.12961376497697724,51.510128193106226 L -0.13019746869664006,51.50987958788372 L -0.13081740631449496,51.50966787753087 L -0.13146760861322523,51.50949510042844 L -0.1321418152121655,51.50936292008871 L -0.1328335348035182,51.50927260915135 L -0.13353610760302745,51.509225037139785 L -0.1342427694161436,51.509220662095714 L -0.13494671670540626,51.50925952617184 L -0.1356411720353173,51.50934125522521 L -0.13631944926740797,51.50946506241506 L -0.13697501788047695,51.50962975577074 L -0.13760156579934543,51.509833749657204 L -0.1381930601294556,51.5100750800282 L -0.13874380521450724,51.51035142332085 L -0.13924849745962462,51.510660118810556 L -0.1397022763932044,51.51099819421173 L -0.14010077147625383,51.51136239427863 L -0.14044014420840553,51.51174921213191 L -0.14071712512451762,51.512154923010115 L -0.14092904532443024,51.512575620121574 L -0.14107386223056842,51.5130072522527 L -0.1411501793232365,51.51344566277066 L -0.14115725966109327,51.51388662964551 L -0.14109503305383517,51.51432590610677 L -0.1409640968151365,51.51475926154278 L -0.1407657100856198,51.515182522249155 L -0.1405017817776411,51.515591611633624 L -0.1401748522552473,51.51598258948967 L -0.13978806892329051,51.51635168996028 L -0.13934515595870509,51.51669535782536 L -0.1388503784738076,51.51701028276288 L -0.13830850145562593,51.51729343125254 L -0.13772474387614003,51.517542075814156 L -0.13710472841536664,51.51775382129797 L -0.13645442728207882,51.51792662797321 L -0.13578010465510354,51.51805883119109 L -0.1350882563011271,51.51814915743276 L -0.13438554695268382,51.518196736586646 L -0.13367874605181904,51.51820111033659 L -0.13297466248106082,51.51816223657962 L -0.13228007891312557,51.518080489830716 L -0.1316016864146004,51.517956657610675 L -0.13094601993631153,51.51779193285201 L -0.1303193953143419,51.51758790239661 L -0.12972784839090554,51.51734653169604 L -0.12917707684343577,51.517070145862995 L -0.12867238528374425,51.51676140725691 L -0.1282186341570917,51.5164232898203 L -0.12782019293386893,51.51605905041432 L -0.1274808980446381,51.51567219743005 L -0.12720401596308117,51.51526645697905 L -0.12699221179120357,51.51484573698943 L -0.1268475236476867,51.514414089554 L -0.12677134310394833,51.513975671893725 L -0.12676440185383622,51.51353470631299 z" /></g></svg>