<svg xmlns="http://www.w3.org/2000/svg" xmlns:xlink="http://www.w3.org/1999/xlink" width="300" height="300" viewBox="698321.2912952343 5710308.649471336 1080.0 1080.0" preserveAspectRatio="xMinYMin meet"><g transform="matrix(1,0,0,-1,0,11421697.298942672)"><path fill-rule="evenodd" fill="#66cc99" stroke="#555555" stroke-width="7.2" opacity="0.6" d="M 699361.2912952343,5710848.649471336 L 699358.8836585705,5710799.640901172 L 699351.683935436,5710751.104310328 L 699339.7614631004,5710703.507132709 L 699323.23106149,5710657.307755154 L 699302.2519274085,5710612.951102923 L 699277.0261013856,5710570.8643548265 L 699247.7965219157,5710531.452829254 L 699214.8446858276,5710495.096080743 L 699178.4879373162,5710462.144244655 L 699139.0764117441,5710432.914665185 L 699096.9896636474,5710407.688839162 L 699052.6330114169,5710386.709705081 L 699006.4336338616,5710370.17930347 L 698958.8364562424,5710358.256831135 L 698910.2998653991,5710351.057108 L 698861.2912952343,5710348.649471336 L 698812.2827250696,5710351.057108 L 698763.7461342263,5710358.256831135 L 698716.1489566071,5710370.17930347 L 698669.9495790518,5710386.709705081 L 698625.5929268213,5710407.688839162 L 698583.5061787246,5710432.914665185 L 698544.0946531525,5710462.144244655 L 698507.7379046411,5710495.096080743 L 698474.786068553,5710531.452829254 L 698445.5564890831,5710570.8643548265 L 698420.3306630602,5710612.951102923 L 698399.3515289787,5710657.307755154 L 698382.8211273683,5710703.507132709 L 698370.8986550327,5710751.104310328 L 698363.6989318982,5710799.640901172 L 698361.2912952343,5710848.649471336 L 698363.6989318982,5710897.6580415005 L 698370.8986550327,5710946.194632344 L 698382.8211273683,5710993.791809963 L 698399.3515289787,5711039.991187518 L 698420.3306630602,5711084.347839749 L 698445.5564890831,5711126.434587846 L 698474.786068553,5711165.846113418 L 698507.7379046411,5711202.202861929 L 698544.0946531525,5711235.154698017 L 698583.5061787246,5711264.384277487 L 698625.5929268213,5711289.61010351 L 698669.9495790518,5711310.589237591 L 698716.1489566071,5711327.119639202 L 698763.7461342263,5711339.042111537 L 698812.2827250696,5711346.241834672 L 698861.2912952343,5711348.649471336 L 698910.2998653991,5711346.241834672 L 698958.8364562424,5711339.042111537 L 699006.4336338616,5711327.119639202 L 699052.6330114169,5711310.589237591 L 699096.9896636474,5711289.61010351 L 699139.0764117441,5711264.384277487 L 699178.4879373162,5711235.154698017 L 699214.8446858276,5711202.202861929 L 699247.7965219157,5711165.846113418 L 699277.0261013856,5711126.434587846 L 699302.2519274085,5711084.347839749 L 699323.23106149,5711039.991187518 L 699339.7614631004,5710993.791809963 L 699351.683935436,5710946.194632344 L 699358.8836585705,5710897.6580415005 L 699361.2912952343,5710848.649471336 z" /></g></svg>