<svg xmlns="http://www.w3.org/2000/svg" xmlns:xlink="http://www.w3.org/1999/xlink" width="300" height="300" viewBox="698321.2912952345 5710308.649471336 1080.0 1080.0" preserveAspectRatio="xMinYMin meet"><g transform="matrix(1,0,0,-1,0,11421697.298942672)"><path fill-rule="evenodd" fill="#66cc99" stroke="#555555" stroke-width="7.2" opacity="0.6" d="M 699361.2912952345,5710848.649471336 L 699358.8836585706,5710799.640901172 L 699351.6839354361,5710751.104310328 L 699339.7614631006,5710703.507132709 L 699323.2310614901,5710657.307755154 L 699302.2519274086,5710612.951102923 L 699277.0261013857,5710570.8643548265 L 699247.7965219158,5710531.452829254 L 699214.8446858277,5710495.096080743 L 699178.4879373163,5710462.144244655 L 699139.0764117442,5710432.914665185 L 699096.9896636475,5710407.688839162 L 699052.633011417,5710386.709705081 L 699006.4336338617,5710370.17930347 L 698958.8364562425,5710358.256831135 L 698910.2998653993,5710351.057108 L 698861.2912952345,5710348.649471336 L 698812.2827250697,5710351.057108 L 698763.7461342264,5710358.256831135 L 698716.1489566072,5710370.17930347 L 698669.9495790519,5710386.709705081 L 698625.5929268214,5710407.688839162 L 698583.5061787247,5710432.914665185 L 698544.0946531526,5710462.144244655 L 698507.7379046412,5710495.096080743 L 698474.7860685531,5710531.452829254 L 698445.5564890832,5710570.8643548265 L 698420.3306630603,5710612.951102923 L 698399.3515289788,5710657.307755154 L 698382.8211273684,5710703.507132709 L 698370.8986550329,5710751.104310328 L 698363.6989318983,5710799.640901172 L 698361.2912952345,5710848.649471336 L 698363.6989318983,5710897.6580415005 L 698370.8986550329,5710946.194632344 L 698382.8211273684,5710993.791809963 L 698399.3515289788,5711039.991187518 L 698420.3306630603,5711084.347839749 L 698445.5564890832,5711126.434587846 L 698474.7860685531,5711165.846113418 L 698507.7379046412,5711202.202861929 L 698544.0946531526,5711235.154698017 L 698583.5061787247,5711264.384277487 L 698625.5929268214,5711289.61010351 L 698669.9495790519,5711310.589237591 L 698716.1489566072,5711327.119639202 L 698763.7461342264,5711339.042111537 L 698812.2827250697,5711346.241834672 L 698861.2912952345,5711348.649471336 L 698910.2998653993,5711346.241834672 L 698958.8364562425,5711339.042111537 L 699006.4336338617,5711327.119639202 L 699052.633011417,5711310.589237591 L 699096.9896636475,5711289.61010351 L 699139.0764117442,5711264.384277487 L 699178.4879373163,5711235.154698017 L 699214.8446858277,5711202.202861929 L 699247.7965219158,5711165.846113418 L 699277.0261013857,5711126.434587846 L 699302.2519274086,5711084.347839749 L 699323.2310614901,5711039.991187518 L 699339.7614631006,5710993.791809963 L 699351.6839354361,5710946.194632344 L 699358.8836585706,5710897.6580415005 L 699361.2912952345,5710848.649471336 z" /></g></svg>