<svg xmlns="http://www.w3.org/2000/svg" xmlns:xlink="http://www.w3.org/1999/xlink" width="300" height="300" viewBox="697889.8116581538 5709877.169834256 1942.9592741613742 1942.9592741597444" preserveAspectRatio="xMinYMin meet"><g transform="matrix(1,0,0,-1,0,11421697.298942672)"><path fill-rule="evenodd" fill="#66cc99" stroke="#555555" stroke-width="12.953061827742495" opacity="0.6" d="M 699760.8094777166,5710868.276541067 L 699760.8094777166,5710829.022401605 L 699758.4018410527,5710780.01383144 L 699754.5542625565,5710740.94871139 L 699747.354539422,5710692.412120546 L 699739.6964367138,5710653.912238367 L 699727.7739643783,5710606.315060748 L 699716.379089174,5710568.7511913525 L 699699.8486875636,5710522.551813797 L 699684.8267787402,5710486.285717783 L 699663.8476446586,5710441.929065552 L 699645.3433714074,5710407.310005243 L 699620.1175453844,5710365.223257147 L 699598.3091139798,5710332.584633032 L 699569.0795345099,5710293.173107459 L 699544.1769720565,5710262.829247314 L 699511.2251359684,5710226.4724988025 L 699483.468267765,5710198.715630599 L 699447.1115192536,5710165.763794512 L 699416.7676591142,5710140.861232064 L 699377.3561335421,5710111.631652594 L 699344.7175094231,5710089.823221186 L 699302.6307613264,5710064.597395163 L 699268.0117010159,5710046.0931219105 L 699223.6550487854,5710025.11398783 L 699187.3889527762,5710010.092079008 L 699141.1895752209,5709993.561677397 L 699103.625705822,5709982.166802192 L 699056.0285282028,5709970.244329857 L 699017.5286460269,5709962.586227149 L 698968.9920551836,5709955.386504014 L 698929.92693513,5709951.538925518 L 698880.9183649652,5709949.131288854 L 698841.6642255037,5709949.131288854 L 698792.6556553389,5709951.538925518 L 698753.5905352853,5709955.386504014 L 698705.0539444421,5709962.586227149 L 698666.5540622661,5709970.244329857 L 698618.9568846469,5709982.166802192 L 698581.393015248,5709993.561677397 L 698535.1936376927,5710010.092079008 L 698498.9275416835,5710025.11398783 L 698454.570889453,5710046.0931219105 L 698419.9518291425,5710064.597395163 L 698377.8650810458,5710089.823221186 L 698345.2264569268,5710111.631652594 L 698305.8149313547,5710140.861232064 L 698275.4710712153,5710165.763794512 L 698239.1143227039,5710198.715630599 L 698211.3574545005,5710226.4724988025 L 698178.4056184124,5710262.829247314 L 698153.503055959,5710293.173107459 L 698124.2734764891,5710332.584633032 L 698102.4650450845,5710365.223257147 L 698077.2392190616,5710407.310005243 L 698058.7349458103,5710441.929065552 L 698037.7558117288,5710486.285717783 L 698022.7339029054,5710522.551813797 L 698006.203501295,5710568.7511913525 L 697994.8086260906,5710606.315060748 L 697982.8861537551,5710653.912238367 L 697975.228051047,5710692.412120546 L 697968.0283279124,5710740.94871139 L 697964.1807494162,5710780.01383144 L 697961.7731127524,5710829.022401605 L 697961.7731127524,5710868.276541067 L 697964.1807494162,5710917.285111232 L 697968.0283279124,5710956.350231282 L 697975.228051047,5711004.886822126 L 697982.8861537551,5711043.386704305 L 697994.8086260906,5711090.983881924 L 698006.203501295,5711128.54775132 L 698022.7339029054,5711174.747128875 L 698037.7558117288,5711211.0132248895 L 698058.7349458103,5711255.3698771205 L 698077.2392190616,5711289.988937429 L 698102.4650450845,5711332.075685525 L 698124.2734764891,5711364.71430964 L 698153.503055959,5711404.125835213 L 698178.4056184124,5711434.469695359 L 698211.3574545005,5711470.82644387 L 698239.1143227039,5711498.583312073 L 698275.4710712153,5711531.5351481605 L 698305.8149313547,5711556.437710608 L 698345.2264569268,5711585.6672900785 L 698377.8650810458,5711607.475721486 L 698419.9518291425,5711632.701547509 L 698454.570889453,5711651.205820762 L 698498.9275416835,5711672.184954843 L 698535.1936376927,5711687.206863664 L 698581.393015248,5711703.737265275 L 698618.9568846469,5711715.13214048 L 698666.5540622661,5711727.054612815 L 698705.0539444421,5711734.712715523 L 698753.5905352853,5711741.912438658 L 698792.6556553389,5711745.760017154 L 698841.6642255037,5711748.167653818 L 698880.9183649652,5711748.167653818 L 698929.92693513,5711745.760017154 L 698968.9920551836,5711741.912438658 L 699017.5286460269,5711734.712715523 L 699056.0285282028,5711727.054612815 L 699103.625705822,5711715.13214048 L 699141.1895752209,5711703.737265275 L 699187.3889527762,5711687.206863664 L 699223.6550487854,5711672.184954843 L 699268.0117010159,5711651.205820762 L 699302.6307613264,5711632.701547509 L 699344.7175094231,5711607.475721486 L 699377.3561335421,5711585.6672900785 L 699416.7676591142,5711556.437710608 L 699447.1115192536,5711531.5351481605 L 699483.468267765,5711498.583312073 L 699511.2251359684,5711470.82644387 L 699544.1769720565,5711434.469695359 L 699569.0795345099,5711404.125835213 L 699598.3091139798,5711364.71430964 L 699620.1175453844,5711332.075685525 L 699645.3433714074,5711289.988937429 L 699663.8476446586,5711255.3698771205 L 699684.8267787402,5711211.0132248895 L 699699.8486875636,5711174.747128875 L 699716.379089174,5711128.54775132 L 699727.7739643783,5711090.983881924 L 699739.6964367138,5711043.386704305 L 699747.354539422,5711004.886822126 L 699754.5542625565,5710956.350231282 L 699758.4018410527,5710917.285111232 L 699760.8094777166,5710868.276541067 z" /></g></svg>