<svg xmlns="http://www.w3.org/2000/svg" xmlns:xlink="http://www.w3.org/1999/xlink" width="100.0" height="100.0" viewBox="-2.56 -2.56 15.120000000000001 10.120000000000001" preserveAspectRatio="xMinYMin meet"><g transform="matrix(1,0,0,-1,0,5.0)"><path fill-rule="evenodd" fill="#66cc99" stroke="#555555" stroke-width="0.3024" opacity="0.6" d="M 5.0,2.82842712474619 L 8.585786437626904,6.414213562373095 L 8.731213431672709,6.546020906725474 L 8.888859533960796,6.662939224605091 L 9.057206526348004,6.76384252869671 L 9.23463313526982,6.847759065022574 L 9.419430645491076,6.913880671464418 L 9.609819355967744,6.961570560806461 L 9.803965719340878,6.990369453344394 L 10.0,7.0 L 10.196034280659122,6.990369453344393 L 10.390180644032256,6.961570560806461 L 10.580569354508924,6.913880671464418 L 10.76536686473018,6.847759065022574 L 10.942793473651996,6.76384252869671 L 11.111140466039204,6.662939224605091 L 11.268786568327291,6.546020906725474 L 11.414213562373096,6.414213562373095 L 11.546020906725474,6.2687865683272905 L 11.66293922460509,6.111140466039204 L 11.76384252869671,5.942793473651996 L 11.847759065022574,5.765366864730179 L 11.913880671464417,5.580569354508924 L 11.96157056080646,5.390180644032257 L 11.990369453344394,5.196034280659122 L 12.0,5.0 L 11.990369453344394,4.803965719340878 L 11.96157056080646,4.609819355967743 L 11.913880671464417,4.419430645491076 L 11.847759065022574,4.234633135269821 L 11.76384252869671,4.057206526348004 L 11.66293922460509,3.8888595339607956 L 11.546020906725474,3.7312134316727095 L 11.414213562373096,3.585786437626905 L 6.414213562373095,-1.414213562373095 L 6.268786568327291,-1.546020906725474 L 6.111140466039204,-1.6629392246050905 L 5.942793473651996,-1.7638425286967099 L 5.765366864730179,-1.8477590650225735 L 5.580569354508925,-1.9138806714644179 L 5.390180644032257,-1.9615705608064609 L 5.196034280659122,-1.9903694533443936 L 5.0,-2.0 L 4.803965719340879,-1.9903694533443939 L 4.609819355967744,-1.9615705608064609 L 4.419430645491076,-1.9138806714644179 L 4.234633135269821,-1.8477590650225735 L 4.057206526348004,-1.76384252869671 L 3.888859533960796,-1.662939224605091 L 3.7312134316727095,-1.5460209067254742 L 3.585786437626905,-1.414213562373095 L -1.414213562373095,3.585786437626905 L -1.5460209067254742,3.7312134316727095 L -1.662939224605091,3.888859533960796 L -1.76384252869671,4.057206526348005 L -1.8477590650225737,4.234633135269821 L -1.9138806714644179,4.419430645491076 L -1.9615705608064609,4.609819355967743 L -1.9903694533443939,4.803965719340879 L -2.0,5.0 L -1.9903694533443936,5.196034280659122 L -1.9615705608064609,5.390180644032257 L -1.9138806714644176,5.580569354508925 L -1.8477590650225735,5.76536686473018 L -1.7638425286967099,5.942793473651996 L -1.6629392246050907,6.111140466039204 L -1.546020906725474,6.268786568327291 L -1.414213562373095,6.414213562373095 L -1.2687865683272908,6.546020906725474 L -1.111140466039204,6.662939224605091 L -0.9427934736519954,6.76384252869671 L -0.7653668647301795,6.847759065022574 L -0.5805693545089243,6.913880671464418 L -0.39018064403225683,6.961570560806461 L -0.1960342806591213,6.990369453344394 L 0.0,7.0 L 0.19603428065912154,6.990369453344393 L 0.39018064403225705,6.961570560806461 L 0.5805693545089247,6.913880671464418 L 0.7653668647301797,6.847759065022574 L 0.9427934736519956,6.76384252869671 L 1.1111404660392041,6.662939224605091 L 1.268786568327291,6.546020906725474 L 1.414213562373095,6.414213562373095 L 5.0,2.82842712474619 z" /></g></svg>