<svg xmlns="http://www.w3.org/2000/svg" xmlns:xlink="http://www.w3.org/1999/xlink" width="100.0" height="100.0" viewBox="-5.8 -5.8 21.6 11.6" preserveAspectRatio="xMinYMin meet"><g transform="matrix(1,0,0,-1,0,0.0)"><path fill-rule="evenodd" fill="#66cc99" stroke="#555555" stroke-width="0.43200000000000005" opacity="0.6" d="M 10.0,5.0 L 10.490085701647804,4.975923633360984 L 10.975451610080642,4.903926402016152 L 11.451423386272312,4.784701678661045 L 11.91341716182545,4.619397662556434 L 12.35698368412999,4.409606321741775 L 12.777851165098012,4.157348061512726 L 13.171966420818228,3.865052266813685 L 13.535533905932738,3.5355339059327373 L 13.865052266813684,3.1719664208182277 L 14.157348061512726,2.777851165098011 L 14.409606321741775,2.3569836841299887 L 14.619397662556434,1.913417161825449 L 14.784701678661044,1.4514233862723114 L 14.903926402016152,0.9754516100806412 L 14.975923633360985,0.4900857016478036 L 15.0,0.0 L 14.975923633360985,-0.4900857016478036 L 14.903926402016152,-0.9754516100806412 L 14.784701678661044,-1.4514233862723114 L 14.619397662556434,-1.913417161825449 L 14.409606321741775,-2.3569836841299887 L 14.157348061512726,-2.7778511650980104 L 13.865052266813684,-3.1719664208182268 L 13.535533905932738,-3.5355339059327373 L 13.171966420818228,-3.865052266813685 L 12.77785116509801,-4.157348061512726 L 12.35698368412999,-4.409606321741775 L 11.91341716182545,-4.619397662556434 L 11.451423386272312,-4.784701678661045 L 10.975451610080643,-4.903926402016152 L 10.490085701647804,-4.975923633360984 L 10.0,-5.0 L 0.0,-5.0 L -0.49008570164780224,-4.975923633360985 L -0.9754516100806433,-4.903926402016151 L -1.4514233862723123,-4.784701678661044 L -1.9134171618254516,-4.619397662556432 L -2.356983684129989,-4.409606321741775 L -2.777851165098011,-4.157348061512726 L -3.1719664208182294,-3.8650522668136835 L -3.5355339059327386,-3.5355339059327373 L -3.8650522668136853,-3.1719664208182263 L -4.157348061512727,-2.77785116509801 L -4.409606321741776,-2.3569836841299883 L -4.619397662556434,-1.9134171618254483 L -4.784701678661045,-1.4514233862723105 L -4.903926402016152,-0.9754516100806419 L -4.975923633360985,-0.49008570164780296 L -5.0,0.0 L -4.975923633360984,0.49008570164780413 L -4.903926402016152,0.9754516100806431 L -4.784701678661044,1.451423386272312 L -4.619397662556434,1.9134171618254494 L -4.409606321741775,2.356983684129989 L -4.157348061512726,2.777851165098011 L -3.865052266813685,3.1719664208182277 L -3.5355339059327373,3.5355339059327378 L -3.1719664208182268,3.8650522668136853 L -2.77785116509801,4.157348061512727 L -2.3569836841299887,4.409606321741776 L -1.9134171618254485,4.619397662556434 L -1.4514233862723107,4.784701678661045 L -0.9754516100806421,4.903926402016152 L -0.49008570164780324,4.975923633360985 L 0.0,5.0 L 10.0,5.0 z" /></g></svg>