<svg xmlns="http://www.w3.org/2000/svg" xmlns:xlink="http://www.w3.org/1999/xlink" width="100.0" height="100.0" viewBox="-0.142327544 51.509468256000005 0.013447187999999999 0.007394787999992047" preserveAspectRatio="xMinYMin meet"><g transform="matrix(1,0,0,-1,0,103.02633130000001)"><path fill-rule="evenodd" fill="#66cc99" stroke="#555555" stroke-width="0.00026894376" opacity="0.6" d="M -0.1418295,51.5150964 L -0.1416219,51.5144947 L -0.1412154,51.513919 L -0.1407406,51.5133165 L -0.1401938,51.5127226 L -0.1396956,51.5121827 L -0.139218,51.5116136 L -0.1387082,51.511047 L -0.1381347,51.510443 L -0.138056,51.5103684 L -0.1379041,51.5102851 L -0.1376615,51.5101849 L -0.1374938,51.5101273 L -0.1373739,51.5100897 L -0.137174,51.5100423 L -0.1369607,51.5100018 L -0.1367699,51.5099796 L -0.1365341,51.5099691 L -0.1363282,51.5099663 L -0.136199,51.5099763 L -0.1359833,51.5099983 L -0.1358617,51.5100121 L -0.1357304,51.5100291 L -0.1354012,51.5101019 L -0.1352774,51.510131 L -0.1352627,51.5101223 L -0.13512,51.5101604 L -0.1350045,51.5101994 L -0.134819,51.5102848 L -0.1345553,51.5102187 L -0.1344994,51.510216 L -0.1344519,51.51022 L -0.1344024,51.5102344 L -0.1343923,51.5102419 L -0.1343726,51.5102578 L -0.1343369,51.5103096 L -0.1342521,51.510441 L -0.1340647,51.5106759 L -0.1339251,51.5108473 L -0.1338178,51.5109648 L -0.133485,51.511293 L -0.1331837,51.5114941 L -0.1330286,51.5116095 L -0.1329784,51.5116414 L -0.1328557,51.5116994 L -0.1325545,51.5118259 L -0.1322504,51.5119561 L -0.1314392,51.5122874 L -0.1304367,51.5126664 L -0.1299327,51.5128501 L -0.1297379,51.5129546 L -0.1294894,51.5130997 L -0.1293784,51.5131726 L -0.1294407,51.5131871 L -0.1294805,51.5132494 L -0.1295057,51.5132957 L -0.1295108,51.5133475 L -0.1294837,51.5134495 L -0.1294596,51.5134934 L -0.1294072,51.5135236 L -0.1294217,51.5135966 L -0.1294362,51.5136317 L -0.1295306,51.5137946 L -0.129567,51.5138695 L -0.129636,51.5139849 L -0.1296451,51.5140012 L -0.1296867,51.5141046 L -0.1297291,51.5142121 L -0.1297884,51.5143634 L -0.1298403,51.5145007 L -0.1299175,51.514682 L -0.1300152,51.51491 L -0.1301523,51.5152675 L -0.1306884,51.5151383 L -0.1307937,51.5153197 L -0.1308895,51.5154833 L -0.1307956,51.5155047 L -0.1308826,51.5155906 L -0.1309068,51.5155977 L -0.1309316,51.5155987 L -0.1309506,51.5155934 L -0.131284,51.5160912 L -0.1312675,51.5161277 L -0.1307013,51.5161832 L -0.1307307,51.516365 L -0.1313097,51.5163318 L -0.1321982,51.5162733 L -0.1329511,51.516213 L -0.1335465,51.5161508 L -0.1353119,51.5159597 L -0.1360908,51.5158808 L -0.1376583,51.5157261 L -0.1386282,51.5156109 L -0.1393623,51.5155356 L -0.1401402,51.5154556 L -0.1411432,51.5153355 L -0.1415848,51.5152797 L -0.1417661,51.5152281 L -0.1418295,51.5150964 z" /></g></svg>