<svg xmlns="http://www.w3.org/2000/svg" xmlns:xlink="http://www.w3.org/1999/xlink" width="100.0" height="100.0" viewBox="-0.142327544 51.509468256000005 0.013447187999999999 0.007394787999992047" preserveAspectRatio="xMinYMin meet"><g transform="matrix(1,0,0,-1,0,103.02633130000001)"><path fill-rule="evenodd" fill="#66cc99" stroke="#555555" stroke-width="0.00026894376" opacity="0.6" d="M -0.1363282,51.5099663 L -0.1365341,51.5099691 L -0.1367699,51.5099796 L -0.1369607,51.5100018 L -0.137174,51.5100423 L -0.1373739,51.5100897 L -0.1374938,51.5101273 L -0.1376615,51.5101849 L -0.1379041,51.5102851 L -0.138056,51.5103684 L -0.1381347,51.510443 L -0.1387082,51.511047 L -0.139218,51.5116136 L -0.1407406,51.5133165 L -0.1412154,51.513919 L -0.1416219,51.5144947 L -0.1418295,51.5150964 L -0.1417661,51.5152281 L -0.1415848,51.5152797 L -0.1411432,51.5153355 L -0.1401402,51.5154556 L -0.1376583,51.5157261 L -0.1329511,51.516213 L -0.1321982,51.5162733 L -0.1313097,51.5163318 L -0.1307307,51.516365 L -0.1301523,51.5152675 L -0.1294362,51.5136317 L -0.1294217,51.5135966 L -0.1294072,51.5135236 L -0.1293784,51.5131726 L -0.1294894,51.5130997 L -0.1297379,51.5129546 L -0.1344024,51.5102344 L -0.1344519,51.51022 L -0.1357304,51.5100291 L -0.1358617,51.5100121 L -0.1359833,51.5099983 L -0.136199,51.5099763 L -0.1363282,51.5099663 z" /></g></svg>