<svg xmlns="http://www.w3.org/2000/svg" xmlns:xlink="http://www.w3.org/1999/xlink" width="100.0" height="100.0" viewBox="1.6231911328527577 46.75983553994134 0.13411087353946494 0.0847096746370255" preserveAspectRatio="xMinYMin meet"><g transform="matrix(1,0,0,-1,0,93.60438075451971)"><path fill-rule="evenodd" fill="#66cc99" stroke="#555555" stroke-width="0.002682217470789299" opacity="0.6" d="M 1.6281582022431083,46.79990089792214 L 1.6314695828505483,46.807746298599966 L 1.6427145838570643,46.815657865063514 L 1.6482663455291673,46.81708639933551 L 1.6536810652110239,46.8160883181293 L 1.662284729873216,46.82453539856729 L 1.6641553431093556,46.831264140665986 L 1.6672859565952443,46.83508329365892 L 1.6822399583334091,46.839578145188014 L 1.6977988641084134,46.83937204857396 L 1.7057692154406658,46.83435831455538 L 1.718044472300531,46.8372915773734 L 1.7257757293583966,46.83511169260356 L 1.7345874371259211,46.82960988822207 L 1.7370971671041122,46.82519394829085 L 1.7384033445677731,46.81787349990893 L 1.7487272263369629,46.81323519487762 L 1.7523349370018722,46.805879707211574 L 1.7510439095282848,46.797891195974955 L 1.74733619547237,46.793454824689654 L 1.7369030329765347,46.79020883947053 L 1.7324605074377974,46.784112124950624 L 1.7214193679826093,46.78028408245816 L 1.7117046519462449,46.77047569828013 L 1.6953037613973634,46.764802609331696 L 1.6818796978659238,46.766399860522164 L 1.6665419268761055,46.773410485445154 L 1.6593776890910314,46.77961215204521 L 1.6562394475134155,46.786002058716875 L 1.6343326947798498,46.78968258084792 L 1.630021680910202,46.79352817128372 L 1.6281582022431083,46.79990089792214 z" /></g></svg>