<svg xmlns="http://www.w3.org/2000/svg" xmlns:xlink="http://www.w3.org/1999/xlink" width="100.0" height="100.0" viewBox="1.633990536 46.770634936 0.11252692799999986 0.06328022800000355" preserveAspectRatio="xMinYMin meet"><g transform="matrix(1,0,0,-1,0,93.60455010000001)"><path fill-rule="evenodd" fill="#66cc99" stroke="#555555" stroke-width="0.002250538559999997" opacity="0.6" d="M 1.6381582,46.7998942 L 1.6381806,46.7997772 L 1.638232,46.7996631 L 1.6383202,46.7995562 L 1.6384371,46.7994616 L 1.6386445,46.7993188 L 1.6387093,46.7992156 L 1.6386882,46.7990527 L 1.6385502,46.7987497 L 1.6391733,46.7985972 L 1.639337,46.7986525 L 1.6395828,46.7986021 L 1.6403083,46.7984694 L 1.6408306,46.7983903 L 1.6412118,46.7983629 L 1.643517,46.798249 L 1.6448155,46.7981791 L 1.6449757,46.7981384 L 1.6451315,46.7981162 L 1.6461575,46.7979991 L 1.646413,46.7979515 L 1.6466696,46.7978598 L 1.6470596,46.7977925 L 1.6473354,46.7977864 L 1.6475797,46.7977987 L 1.6483386,46.797801 L 1.648509,46.7978203 L 1.6486099,46.7978202 L 1.6490502,46.7977561 L 1.6494359,46.7976273 L 1.6494799,46.7976315 L 1.650165,46.7976013 L 1.6508512,46.7976211 L 1.6510768,46.7976221 L 1.6513372,46.7975919 L 1.6524743,46.797437 L 1.6529367,46.7973825 L 1.653156,46.7973451 L 1.6534052,46.797278 L 1.6542011,46.7969875 L 1.65448,46.7968974 L 1.6548293,46.7968049 L 1.6550339,46.7967723 L 1.6554042,46.796715 L 1.6559209,46.7966211 L 1.656397,46.7965051 L 1.656734,46.7964191 L 1.6571964,46.7963629 L 1.6575108,46.7963066 L 1.6577623,46.7962429 L 1.6579682,46.796162 L 1.6590104,46.795601 L 1.6591259,46.7955637 L 1.659697,46.7954678 L 1.6598742,46.7954459 L 1.6600432,46.7954399 L 1.6602054,46.7954778 L 1.6604615,46.7955594 L 1.6606664,46.7955952 L 1.6608406,46.7956132 L 1.6610119,46.7955966 L 1.6611804,46.7955319 L 1.6615498,46.7953523 L 1.6624864,46.7949233 L 1.6630919,46.7946158 L 1.663347,46.7944268 L 1.6643113,46.7935836 L 1.6641061,46.7933266 L 1.6641908,46.7932756 L 1.6645889,46.7928016 L 1.6649175,46.7924642 L 1.6650349,46.7923509 L 1.665119,46.7922453 L 1.6653644,46.7918216 L 1.6654843,46.7916043 L 1.6655645,46.7914213 L 1.6656152,46.7912553 L 1.6656464,46.7910157 L 1.6656514,46.7908144 L 1.6656822,46.7906695 L 1.6657435,46.7905435 L 1.6659458,46.7902913 L 1.6660161,46.7901961 L 1.6660451,46.7901205 L 1.6660944,46.7899344 L 1.6660695,46.7897635 L 1.6660651,46.7896288 L 1.6658592,46.7894784 L 1.6656486,46.7893626 L 1.6656876,46.7892751 L 1.6659113,46.788907 L 1.666152,46.7884953 L 1.6661803,46.7883353 L 1.6663151,46.7879098 L 1.6663433,46.787631 L 1.6664218,46.7872779 L 1.6665536,46.7868545 L 1.6667078,46.7865063 L 1.6667943,46.7863199 L 1.6669845,46.7861096 L 1.667105,46.7860194 L 1.6676818,46.785747 L 1.6678484,46.7856344 L 1.6679359,46.7855271 L 1.6680754,46.7852809 L 1.6687766,46.7842746 L 1.6690027,46.7840815 L 1.6691788,46.7839502 L 1.670272,46.7832756 L 1.6708146,46.7827903 L 1.671465,46.7821147 L 1.6728142,46.7826137 L 1.6731653,46.7827313 L 1.6733123,46.782306 L 1.6734172,46.7821073 L 1.673674,46.7818999 L 1.6740455,46.7817146 L 1.6743158,46.781574 L 1.6750722,46.7810246 L 1.6753849,46.7808866 L 1.6755394,46.7806468 L 1.6756354,46.7805625 L 1.6758286,46.780598 L 1.6777987,46.7802605 L 1.6795871,46.779546 L 1.6802293,46.7791993 L 1.6802345,46.7789846 L 1.6802348,46.7789723 L 1.6805324,46.778957 L 1.6811128,46.7789033 L 1.6819651,46.7788903 L 1.6825724,46.7788535 L 1.6830749,46.7787707 L 1.6836262,46.7786637 L 1.6839192,46.7784588 L 1.6843729,46.777887 L 1.6851353,46.7772084 L 1.6851536,46.7769587 L 1.6852135,46.7766157 L 1.685219,46.7763887 L 1.6851075,46.7758646 L 1.6869466,46.7757941 L 1.6869627,46.7758286 L 1.6905936,46.7756819 L 1.6944391,46.7753886 L 1.6952901,46.7748026 L 1.6958003,46.7750209 L 1.6967785,46.7753133 L 1.6973559,46.7756365 L 1.6978614,46.7759214 L 1.698081,46.7760608 L 1.698464,46.7763531 L 1.6990033,46.7767605 L 1.6992233,46.7768124 L 1.7001857,46.7769726 L 1.7008781,46.7770699 L 1.701388,46.7771676 L 1.7016561,46.777236 L 1.701947,46.7773206 L 1.7022007,46.7774249 L 1.7026017,46.7776121 L 1.7037632,46.7780519 L 1.7066137,46.7791686 L 1.7071658,46.7793863 L 1.7069257,46.7803773 L 1.7073486,46.7804647 L 1.7074753,46.7805208 L 1.7078705,46.7811132 L 1.7085367,46.7817366 L 1.708854,46.7820188 L 1.709222,46.7822949 L 1.7098574,46.7825834 L 1.71012,46.7825571 L 1.710208,46.7826762 L 1.7102771,46.7827889 L 1.7105096,46.7833701 L 1.710711,46.7837937 L 1.7108161,46.7839048 L 1.7111995,46.7843268 L 1.7113072,46.7844755 L 1.7114153,46.784693 L 1.7115147,46.7848546 L 1.7119101,46.7853969 L 1.7123372,46.7857778 L 1.7130095,46.7860871 L 1.7135582,46.7864543 L 1.7132667,46.7866763 L 1.7136292,46.7868913 L 1.7139733,46.7871178 L 1.7134748,46.7880607 L 1.713009,46.7888395 L 1.7129272,46.7890391 L 1.7143877,46.7890539 L 1.7144904,46.7893281 L 1.7144432,46.789848 L 1.7146914,46.7898081 L 1.7147597,46.789808 L 1.7151459,46.7896042 L 1.7152966,46.789434 L 1.716184,46.7898258 L 1.7167218,46.790019 L 1.7170242,46.7901307 L 1.7171011,46.7901591 L 1.7177516,46.7904159 L 1.7181534,46.7904802 L 1.718803,46.7901604 L 1.719257,46.7901798 L 1.7196368,46.7901516 L 1.7202185,46.7902155 L 1.7203041,46.7902195 L 1.7204301,46.7902345 L 1.7206705,46.7904666 L 1.7206828,46.7905213 L 1.7201728,46.7910736 L 1.7201912,46.7910933 L 1.7200378,46.7912183 L 1.7214208,46.791727 L 1.7252499,46.7923181 L 1.727208,46.7926216 L 1.726852,46.7935141 L 1.7262798,46.7951391 L 1.7260984,46.7964468 L 1.7260541,46.7965746 L 1.7273579,46.7965392 L 1.7274092,46.7965248 L 1.7274826,46.7966039 L 1.7276445,46.7967324 L 1.7276386,46.796779 L 1.727735,46.79701 L 1.7280492,46.7971668 L 1.7281476,46.7973145 L 1.7281712,46.7976514 L 1.7279448,46.7977839 L 1.7314697,46.7989496 L 1.7338632,46.799736 L 1.7365671,46.8006342 L 1.7390211,46.8014526 L 1.7393898,46.80156 L 1.7400665,46.8015741 L 1.7406198,46.8016769 L 1.7408729,46.8017513 L 1.7409632,46.801729 L 1.7409918,46.8016477 L 1.7418446,46.801812 L 1.7411046,46.8023238 L 1.7407521,46.8025582 L 1.7406592,46.8026905 L 1.7406492,46.8028053 L 1.7407446,46.803293 L 1.7407213,46.8034593 L 1.7404287,46.803931 L 1.7406965,46.8041039 L 1.7410247,46.8042842 L 1.7410988,46.8044367 L 1.7413103,46.804524 L 1.7414813,46.8045825 L 1.7416821,46.8046064 L 1.741881,46.8047169 L 1.742084,46.8048558 L 1.7422325,46.805044 L 1.7423498,46.805322 L 1.7423446,46.8054402 L 1.7422685,46.8055593 L 1.7421469,46.8055177 L 1.7421012,46.8055993 L 1.7420595,46.805747 L 1.7420082,46.8058288 L 1.741879,46.8059261 L 1.7416871,46.8060923 L 1.7415641,46.8061606 L 1.7407602,46.8064389 L 1.7406834,46.8064747 L 1.7404,46.8066871 L 1.740286,46.8067488 L 1.7400757,46.8068271 L 1.7400239,46.8068349 L 1.7397928,46.8068291 L 1.7392919,46.8068861 L 1.7390505,46.8069398 L 1.7389253,46.8069824 L 1.7388327,46.8070288 L 1.7385414,46.8072261 L 1.7377275,46.8077416 L 1.7374023,46.8078697 L 1.7372974,46.8078954 L 1.7367484,46.8079678 L 1.7365712,46.8080042 L 1.7359795,46.8081966 L 1.7358141,46.8082259 L 1.7351383,46.8082901 L 1.7348701,46.8083293 L 1.7342749,46.8085014 L 1.733902,46.8085568 L 1.733114,46.8087242 L 1.7315352,46.8092639 L 1.7311947,46.8094323 L 1.7305752,46.8097629 L 1.7292959,46.8103493 L 1.728799,46.8105583 L 1.7287354,46.8106216 L 1.7279649,46.8118523 L 1.7270459,46.8132597 L 1.7269711,46.8133966 L 1.7269141,46.8135355 L 1.7268595,46.8137336 L 1.7268724,46.8138205 L 1.7269562,46.8140281 L 1.7270059,46.8141057 L 1.7270695,46.8141622 L 1.7275554,46.8144853 L 1.7280247,46.8147628 L 1.7281234,46.8148351 L 1.7282091,46.8149151 L 1.7284069,46.8152544 L 1.7284126,46.8152907 L 1.7283754,46.815366 L 1.7283279,46.8154042 L 1.7282684,46.8154352 L 1.7280278,46.8155232 L 1.7278675,46.8155462 L 1.7274848,46.8155726 L 1.7273638,46.8155991 L 1.7272781,46.8156345 L 1.7272094,46.8156805 L 1.7271537,46.8157344 L 1.7267547,46.816285 L 1.7266449,46.8164958 L 1.7266435,46.8165997 L 1.7266833,46.8166515 L 1.7267478,46.8166939 L 1.7272129,46.8168882 L 1.7275267,46.8169196 L 1.7279932,46.8170104 L 1.7281068,46.8170615 L 1.7281854,46.8171135 L 1.7282628,46.8171966 L 1.7282854,46.8172707 L 1.7282802,46.817466 L 1.7284182,46.8181972 L 1.7284183,46.8182873 L 1.7283425,46.8185405 L 1.7281379,46.81905 L 1.7281056,46.8191034 L 1.7278005,46.8194816 L 1.7277114,46.8196371 L 1.7276752,46.8197368 L 1.727571,46.8201547 L 1.7275433,46.8202238 L 1.7273075,46.820578 L 1.7272025,46.8206797 L 1.7271052,46.8208082 L 1.7268277,46.8210954 L 1.7267773,46.8211169 L 1.7261432,46.8212627 L 1.7260913,46.8212981 L 1.7260536,46.8213437 L 1.7259495,46.8215699 L 1.7259424,46.821685 L 1.725952,46.8217226 L 1.726117,46.8218502 L 1.7261911,46.8218859 L 1.7270958,46.8220715 L 1.7271628,46.8220999 L 1.727392,46.8222339 L 1.7274314,46.8222826 L 1.7274687,46.8223703 L 1.7274697,46.8224899 L 1.7274142,46.8226339 L 1.7273844,46.8226733 L 1.7271977,46.8228259 L 1.7271182,46.8228606 L 1.7255229,46.8232114 L 1.7249538,46.8233501 L 1.7244654,46.8235042 L 1.7243847,46.823538 L 1.7235153,46.8241091 L 1.7228425,46.8246661 L 1.7227519,46.8247186 L 1.7225126,46.824822 L 1.7224853,46.8248521 L 1.7224182,46.8250863 L 1.7223249,46.8252746 L 1.7222407,46.8253878 L 1.7218532,46.8257973 L 1.7217468,46.825886 L 1.7214088,46.8260351 L 1.7213704,46.8260644 L 1.7212648,46.8261867 L 1.7212087,46.8262155 L 1.7207439,46.8263762 L 1.7205422,46.8264598 L 1.7197881,46.8268634 L 1.7195295,46.826986 L 1.7186099,46.8273057 L 1.7184165,46.8272985 L 1.7182987,46.8272807 L 1.7167643,46.8269361 L 1.7166835,46.8269248 L 1.7164945,46.8269183 L 1.7160512,46.826922 L 1.7151358,46.8267867 L 1.7148426,46.8267531 L 1.7144574,46.8267619 L 1.7141648,46.8267535 L 1.7136884,46.8267229 L 1.7133989,46.8266523 L 1.7133214,46.8266453 L 1.7132458,46.8266501 L 1.7129798,46.8267094 L 1.7127445,46.8267147 L 1.7127198,46.826705 L 1.7126354,46.8266349 L 1.7122852,46.8264354 L 1.7121597,46.82635 L 1.7120546,46.8263143 L 1.71185,46.8262843 L 1.7116453,46.8262393 L 1.711519,46.826188 L 1.7114618,46.8261446 L 1.7113301,46.8259886 L 1.7112129,46.825882 L 1.7109163,46.8256431 L 1.7108313,46.8255556 L 1.7107642,46.8254627 L 1.7106736,46.8252622 L 1.7105664,46.8248991 L 1.7105,46.8247754 L 1.7104292,46.8246734 L 1.7101526,46.8244106 L 1.7100825,46.8243055 L 1.7100794,46.8242506 L 1.7101861,46.8238477 L 1.7102162,46.8237932 L 1.7102827,46.8237265 L 1.7103209,46.823709 L 1.7107161,46.8236047 L 1.7107632,46.8235823 L 1.7110811,46.8232095 L 1.7111296,46.8231329 L 1.71114,46.8227674 L 1.7110985,46.8226479 L 1.7110296,46.8225348 L 1.710844,46.8222959 L 1.7104041,46.8218105 L 1.7100805,46.8215424 L 1.7097711,46.8213302 L 1.709415,46.8211166 L 1.708706,46.8206913 L 1.7080132,46.8203243 L 1.7078205,46.8202413 L 1.7076211,46.8201819 L 1.7067655,46.8199865 L 1.7065489,46.8199537 L 1.7058966,46.8199999 L 1.7056781,46.8199997 L 1.7053794,46.8199644 L 1.7047444,46.8199619 L 1.7037965,46.8201236 L 1.7036721,46.8201518 L 1.7034179,46.8202286 L 1.7024434,46.8205713 L 1.7019807,46.8207588 L 1.701129,46.8211399 L 1.7010159,46.8212076 L 1.7002985,46.8214694 L 1.7002231,46.8215138 L 1.6999723,46.8217691 L 1.6998596,46.8219104 L 1.6998504,46.8219919 L 1.699881,46.8221275 L 1.6999059,46.8223577 L 1.6999192,46.8227031 L 1.6999111,46.822739 L 1.6998762,46.8227819 L 1.6996979,46.8229319 L 1.6996551,46.8229567 L 1.6995222,46.8229944 L 1.6993333,46.8230316 L 1.699203,46.8230726 L 1.6991305,46.8231149 L 1.6990129,46.8232288 L 1.6988975,46.8233877 L 1.6988216,46.8236362 L 1.6987666,46.8239152 L 1.6987081,46.8240866 L 1.6986098,46.8245028 L 1.6985847,46.8245541 L 1.6985513,46.824629 L 1.6982825,46.8250574 L 1.6980191,46.8255786 L 1.6976883,46.8263436 L 1.6975673,46.8266651 L 1.6975558,46.8267514 L 1.6976029,46.8270525 L 1.6976987,46.8273093 L 1.6978259,46.8275325 L 1.6980599,46.827787 L 1.6981046,46.8278685 L 1.6981188,46.8279231 L 1.6981111,46.8279432 L 1.6980575,46.8279795 L 1.6974312,46.8282523 L 1.6972919,46.8282811 L 1.6972203,46.8282822 L 1.6971133,46.8282552 L 1.6970528,46.8282104 L 1.6969426,46.8280665 L 1.6968866,46.8280193 L 1.6968241,46.8279886 L 1.6966803,46.827949 L 1.6965209,46.8279331 L 1.6963566,46.827935 L 1.6960223,46.8279737 L 1.6959157,46.8279999 L 1.695779,46.828079 L 1.6956567,46.8281788 L 1.6953822,46.8284523 L 1.6953648,46.8284809 L 1.695365,46.8286352 L 1.6954378,46.8289243 L 1.6954869,46.829259 L 1.6954892,46.8293672 L 1.6954679,46.8294706 L 1.6954106,46.8295676 L 1.6953645,46.8296132 L 1.6952495,46.8296919 L 1.6951626,46.8297258 L 1.6950295,46.8297475 L 1.6948698,46.8297247 L 1.6946869,46.8296709 L 1.6946035,46.8296316 L 1.6945336,46.8295851 L 1.6944899,46.8295358 L 1.6944114,46.8292503 L 1.6943019,46.8290322 L 1.694244,46.8289496 L 1.6941711,46.8288883 L 1.6936483,46.8285768 L 1.692465,46.8281681 L 1.6922111,46.8280941 L 1.6913339,46.8278935 L 1.6910641,46.8278557 L 1.6905913,46.8279093 L 1.6903821,46.8279119 L 1.6902447,46.8278835 L 1.6899628,46.8277716 L 1.6899198,46.8277626 L 1.6899618,46.8278608 L 1.6901011,46.8280848 L 1.6901006,46.8281036 L 1.6900784,46.828127 L 1.689858,46.8282048 L 1.6896927,46.8282494 L 1.6885677,46.8284758 L 1.6884738,46.8285053 L 1.6883907,46.8285457 L 1.6882889,46.8286347 L 1.6882401,46.8287075 L 1.688217,46.8288349 L 1.6882206,46.8292023 L 1.6882088,46.8292175 L 1.6866525,46.8291337 L 1.686591,46.8291411 L 1.6866824,46.8292602 L 1.6861302,46.8292463 L 1.6854145,46.8291998 L 1.6853795,46.8291789 L 1.6853403,46.8291745 L 1.6852249,46.8291844 L 1.6851678,46.8291741 L 1.6851287,46.8290481 L 1.68503,46.8290673 L 1.6841436,46.8293389 L 1.6837053,46.8295028 L 1.6836555,46.8295141 L 1.6836349,46.8295065 L 1.6835021,46.8293569 L 1.6834805,46.8293475 L 1.6834135,46.8293565 L 1.6826718,46.8295802 L 1.6825992,46.8295846 L 1.6806481,46.828472 L 1.6805381,46.8284062 L 1.679566,46.8278575 L 1.6793869,46.8277462 L 1.679261,46.8277021 L 1.6789351,46.8276678 L 1.6784388,46.8276308 L 1.6732305,46.827042 L 1.6732089,46.8270176 L 1.6727807,46.8253258 L 1.6727617,46.8252906 L 1.6722792,46.8234517 L 1.671955,46.8219365 L 1.6719255,46.8219133 L 1.6719132,46.8218761 L 1.671908,46.8218344 L 1.6719169,46.8213604 L 1.6715924,46.8186996 L 1.6714737,46.8182657 L 1.6714463,46.8177439 L 1.6715814,46.8176329 L 1.6717874,46.816865 L 1.6718668,46.8167928 L 1.6718304,46.8166383 L 1.6714674,46.8166578 L 1.6711912,46.8166546 L 1.670936,46.816622 L 1.6707158,46.8165661 L 1.6704197,46.8164382 L 1.670115,46.8163102 L 1.669632,46.8160656 L 1.6694984,46.8159988 L 1.6693868,46.8159718 L 1.6692916,46.8159826 L 1.6691902,46.816011 L 1.6691106,46.8160891 L 1.6690384,46.8163312 L 1.6689816,46.8164194 L 1.6689347,46.8164525 L 1.6688626,46.8164595 L 1.6686993,46.8164339 L 1.668323,46.8162913 L 1.6678674,46.8161003 L 1.6674828,46.8159437 L 1.6667664,46.8155976 L 1.6662936,46.8153482 L 1.6658123,46.8150324 L 1.6651919,46.8145274 L 1.6646905,46.8140949 L 1.6643904,46.8137833 L 1.6640822,46.8134498 L 1.6636711,46.8129729 L 1.6633493,46.8124931 L 1.662938,46.8119116 L 1.6624361,46.8112697 L 1.6622541,46.8106936 L 1.6623273,46.8105419 L 1.6623309,46.8105345 L 1.6613201,46.8095061 L 1.6612005,46.8093381 L 1.6610781,46.8090884 L 1.6610605,46.8090148 L 1.6610641,46.8089666 L 1.6613553,46.8085784 L 1.6615794,46.8076712 L 1.6615844,46.8075662 L 1.66155,46.8074858 L 1.6614722,46.8073916 L 1.6612223,46.807197 L 1.6610488,46.8070467 L 1.6608095,46.8066206 L 1.6604623,46.8062142 L 1.6602931,46.8056744 L 1.6603422,46.8055291 L 1.6603539,46.8050585 L 1.6603332,46.8049145 L 1.660249,46.8047636 L 1.6601571,46.8046771 L 1.6600374,46.8046132 L 1.6598678,46.8046029 L 1.6596305,46.8046272 L 1.6593952,46.8046973 L 1.6591196,46.8048024 L 1.6588617,46.8049243 L 1.6585478,46.805106 L 1.6584125,46.8051794 L 1.658269,46.8052131 L 1.6577803,46.8052261 L 1.6576263,46.8051993 L 1.6575183,46.8051481 L 1.6573462,46.8049961 L 1.6572529,46.804845 L 1.6572024,46.8048027 L 1.6570782,46.804793 L 1.6569323,46.8048058 L 1.6567826,46.8048499 L 1.6565899,46.8049101 L 1.6564515,46.8049855 L 1.6562016,46.8051534 L 1.6554805,46.8054823 L 1.6552722,46.8055653 L 1.655071,46.8056046 L 1.6545205,46.8056606 L 1.6540686,46.8057761 L 1.6537727,46.8058434 L 1.6532518,46.8059268 L 1.6526011,46.8061108 L 1.6523445,46.8061806 L 1.6516444,46.8062723 L 1.6512074,46.8064005 L 1.6509724,46.8064581 L 1.6507896,46.8064872 L 1.650625,46.8065186 L 1.6504546,46.8065395 L 1.6499775,46.8065734 L 1.6490312,46.806808 L 1.6486896,46.8070018 L 1.6485121,46.8070601 L 1.6482627,46.8070864 L 1.6479934,46.8070582 L 1.6476979,46.806988 L 1.6474446,46.806808 L 1.646986,46.8063443 L 1.6461543,46.8056408 L 1.64577,46.8049988 L 1.645635,46.8048201 L 1.6454603,46.8046493 L 1.6453139,46.8045601 L 1.6452086,46.8045235 L 1.6450753,46.8045177 L 1.6449319,46.8045493 L 1.6445795,46.804691 L 1.6444269,46.8047287 L 1.6443114,46.8047357 L 1.6441796,46.8046695 L 1.6440607,46.8045723 L 1.6432108,46.8032994 L 1.6430751,46.8030994 L 1.6429527,46.802853 L 1.6428158,46.8025048 L 1.6426452,46.8022652 L 1.6425195,46.8021297 L 1.6422409,46.801918 L 1.6419363,46.8017767 L 1.6414531,46.8015954 L 1.6412703,46.8015332 L 1.6410531,46.8013873 L 1.6408936,46.8012671 L 1.640683,46.801053 L 1.6403896,46.8008528 L 1.6400578,46.8007322 L 1.6398794,46.8006851 L 1.6397275,46.8007416 L 1.6395618,46.800863 L 1.6391468,46.8011805 L 1.6390783,46.8012023 L 1.6390414,46.8012019 L 1.6389789,46.8011425 L 1.638957,46.8010849 L 1.6389715,46.8007424 L 1.6389715,46.8005891 L 1.6389438,46.8005355 L 1.6388845,46.8004974 L 1.6384012,46.8002637 L 1.6382498,46.8001886 L 1.6381891,46.8001305 L 1.6381583,46.8000435 L 1.6381582,46.7998942 z" /></g></svg>